<svg width="36" height="61" viewBox="0 0 36 61" fill="none" xmlns="http://www.w3.org/2000/svg">
<path d="M17.4634 38.706C17.3794 38.706 17.2674 38.678 17.1274 38.622C17.0154 38.566 16.8894 38.51 16.7494 38.454L1.62937 28.164C1.23737 27.884 0.929367 27.618 0.705367 27.366C0.509367 27.086 0.411367 26.736 0.411367 26.316V25.014C0.411367 24.594 0.509367 24.258 0.705367 24.006C0.929367 23.754 1.23737 23.488 1.62937 23.208L16.7494 12.918C16.8894 12.834 17.0154 12.764 17.1274 12.708C17.2674 12.652 17.3794 12.624 17.4634 12.624C17.7154 12.624 17.9254 12.708 18.0934 12.876C18.2614 13.044 18.3454 13.254 18.3454 13.506V18C18.3454 18.448 18.2194 18.798 17.9674 19.05C17.7154 19.274 17.4494 19.484 17.1694 19.68L8.01337 25.686L17.1694 31.734C17.4494 31.902 17.7154 32.098 17.9674 32.322C18.2194 32.546 18.3454 32.882 18.3454 33.33V37.866C18.3454 38.118 18.2614 38.328 18.0934 38.496C17.9254 38.636 17.7154 38.706 17.4634 38.706Z" fill="#D77CE6"/>
<path d="M18.5366 22.294C18.6206 22.294 18.7326 22.322 18.8726 22.378C18.9846 22.434 19.1106 22.49 19.2506 22.546L34.3706 32.836C34.7626 33.116 35.0706 33.382 35.2946 33.634C35.4906 33.914 35.5886 34.264 35.5886 34.684L35.5886 35.986C35.5886 36.406 35.4906 36.742 35.2946 36.994C35.0706 37.246 34.7626 37.512 34.3706 37.792L19.2506 48.082C19.1106 48.166 18.9846 48.236 18.8726 48.292C18.7326 48.348 18.6206 48.376 18.5366 48.376C18.2846 48.376 18.0746 48.292 17.9066 48.124C17.7386 47.956 17.6546 47.746 17.6546 47.494L17.6546 43C17.6546 42.552 17.7806 42.202 18.0326 41.95C18.2846 41.726 18.5506 41.516 18.8306 41.32L27.9866 35.314L18.8306 29.266C18.5506 29.098 18.2846 28.902 18.0326 28.678C17.7806 28.454 17.6546 28.118 17.6546 27.67L17.6546 23.134C17.6546 22.882 17.7386 22.672 17.9066 22.504C18.0746 22.364 18.2846 22.294 18.5366 22.294Z" fill="#753DCD"/>
</svg>
